{
  "accessors": [
    {
      "bufferView": 2,
      "componentType": 5126,
      "count": 20515,
      "max": [
        9.785208702087402,
        13.085695266723633,
        11.544038772583008
      ],
      "min": [
        1.1634618043899536,
        -0.19990384578704834,
        -11.493898391723633
      ],
      "type": "VEC3"
    },
    {
      "bufferView": 2,
      "byteOffset": 246180,
      "componentType": 5126,
      "count": 20515,
      "max": [
        0.9999900460243225,
        1.0,
        0.9997712969779968
      ],
      "min": [
        -0.9999993443489075,
        -0.9999976754188538,
        -0.9998361468315125
      ],
      "type": "VEC3"
    },
    {
      "bufferView": 1,
      "componentType": 5126,
      "count": 20515,
      "max": [
        0.9801999926567078,
        0.9786999821662903
      ],
      "min": [
        0.024700000882148743,
        0.02249997854232788
      ],
      "type": "VEC2"
    },
    {
      "bufferView": 0,
      "componentType": 5125,
      "count": 114390,
      "type": "SCALAR"
    },
    {
      "bufferView": 2,
      "byteOffset": 492360,
      "componentType": 5126,
      "count": 20515,
      "max": [
        -1.1634618043899536,
        13.085695266723633,
        11.544038772583008
      ],
      "min": [
        -9.785208702087402,
        -0.19990384578704834,
        -11.493898391723633
      ],
      "type": "VEC3"
    },
    {
      "bufferView": 2,
      "byteOffset": 738540,
      "componentType": 5126,
      "count": 20515,
      "max": [
        0.9999992847442627,
        1.0,
        0.999771237373352
      ],
      "min": [
        -0.9999900460243225,
        -0.999997615814209,
        -0.9998361468315125
      ],
      "type": "VEC3"
    },
    {
      "bufferView": 1,
      "byteOffset": 164120,
      "componentType": 5126,
      "count": 20515,
      "max": [
        0.9801999926567078,
        0.9786999821662903
      ],
      "min": [
        0.024700000882148743,
        0.02249997854232788
      ],
      "type": "VEC2"
    },
    {
      "bufferView": 0,
      "byteOffset": 457560,
      "componentType": 5125,
      "count": 114390,
      "type": "SCALAR"
    }
  ],
  "asset": {
    "extras": {
      "author": "SRUSH651 2th☑ (https://sketchfab.com/THE-OFFICIAL-SRUSH651)",
      "license": "CC-BY-4.0 (http://creativecommons.org/licenses/by/4.0/)",
      "source": "https://sketchfab.com/3d-models/air-jordan-1-og-high-dior-73513cef1958404fbab49fc36e7c8905",
      "title": "AIR JORDAN 1 OG HIGH DIOR"
    },
    "generator": "Sketchfab-16.59.0",
    "version": "2.0"
  },
  "bufferViews": [
    {
      "buffer": 0,
      "byteLength": 915120,
      "name": "floatBufferViews",
      "target": 34963
    },
    {
      "buffer": 0,
      "byteLength": 328240,
      "byteOffset": 915120,
      "byteStride": 8,
      "name": "floatBufferViews",
      "target": 34962
    },
    {
      "buffer": 0,
      "byteLength": 984720,
      "byteOffset": 1243360,
      "byteStride": 12,
      "name": "floatBufferViews",
      "target": 34962
    }
  ],
  "buffers": [
    {
      "byteLength": 2228080,
      "uri": "scene.bin"
    }
  ],
  "images": [
    {
      "uri": "textures/lambert2_baseColor.jpeg"
    }
  ],
  "materials": [
    {
      "doubleSided": true,
      "emissiveFactor": [
        1.0,
        1.0,
        1.0
      ],
      "emissiveTexture": {
        "index": 0
      },
      "name": "lambert2",
      "pbrMetallicRoughness": {
        "baseColorTexture": {
          "index": 0
        }
      }
    }
  ],
  "meshes": [
    {
      "name": "Dior_x_Air_Jordan_1_High_OG_lambert2_0",
      "primitives": [
        {
          "attributes": {
            "NORMAL": 1,
            "POSITION": 0,
            "TEXCOORD_0": 2
          },
          "indices": 3,
          "material": 0,
          "mode": 4
        }
      ]
    },
    {
      "name": "Dior_x_Air_Jordan_1_High_OG1_lambert2_0",
      "primitives": [
        {
          "attributes": {
            "NORMAL": 5,
            "POSITION": 4,
            "TEXCOORD_0": 6
          },
          "indices": 7,
          "material": 0,
          "mode": 4
        }
      ]
    }
  ],
  "nodes": [
    {
      "children": [
        1
      ],
      "matrix": [
        1.0,
        0.0,
        0.0,
        0.0,
        0.0,
        2.220446049250313e-16,
        -1.0,
        0.0,
        0.0,
        1.0,
        2.220446049250313e-16,
        0.0,
        0.0,
        0.0,
        0.0,
        1.0
      ],
      "name": "Sketchfab_model"
    },
    {
      "children": [
        2
      ],
      "matrix": [
        0.009999999776482582,
        0.0,
        0.0,
        0.0,
        0.0,
        2.2204459996194763e-18,
        0.009999999776482582,
        0.0,
        0.0,
        -0.009999999776482582,
        2.2204459996194763e-18,
        0.0,
        0.0,
        0.0,
        0.0,
        1.0
      ],
      "name": "USDRoot"
    },
    {
      "children": [
        3
      ],
      "name": "scene"
    },
    {
      "children": [
        4
      ],
      "matrix": [
        100.0,
        0.0,
        0.0,
        0.0,
        0.0,
        100.0,
        0.0,
        0.0,
        0.0,
        0.0,
        100.0,
        0.0,
        0.0,
        0.0,
        0.0,
        1.0
      ],
      "name": "Meshes"
    },
    {
      "children": [
        5
      ],
      "matrix": [
        1.0,
        0.0,
        0.0,
        0.0,
        0.0,
        2.220446049250313e-16,
        -1.0,
        0.0,
        0.0,
        1.0,
        2.220446049250313e-16,
        0.0,
        0.0,
        0.0,
        0.0,
        1.0
      ],
      "name": "Sketchfab_model"
    },
    {
      "children": [
        6
      ],
      "matrix": [
        0.009999999776482582,
        0.0,
        0.0,
        0.0,
        0.0,
        0.0,
        0.009999999776482582,
        0.0,
        0.0,
        -0.009999999776482582,
        0.0,
        0.0,
        0.0,
        0.0,
        0.0,
        1.0
      ],
      "name": "_2c066f69835442a8f483ebf413e7b14_fbx"
    },
    {
      "children": [
        7,
        10
      ],
      "name": "RootNode"
    },
    {
      "children": [
        8
      ],
      "name": "Dior_x_Air_Jordan_1_High_OG"
    },
    {
      "children": [
        9
      ],
      "name": "Dior_x_Air_Jordan_1_High_OG_lambert2_0"
    },
    {
      "mesh": 0,
      "name": "Dior_x_Air_Jordan_1_High_OG_lambert2_0"
    },
    {
      "children": [
        11
      ],
      "name": "Dior_x_Air_Jordan_1_High_OG1"
    },
    {
      "children": [
        12
      ],
      "name": "Dior_x_Air_Jordan_1_High_OG1_lambert2_0"
    },
    {
      "mesh": 1,
      "name": "Dior_x_Air_Jordan_1_High_OG1_lambert2_0"
    }
  ],
  "samplers": [
    {
      "magFilter": 9729,
      "minFilter": 9987,
      "wrapS": 10497,
      "wrapT": 10497
    }
  ],
  "scene": 0,
  "scenes": [
    {
      "name": "Sketchfab_Scene",
      "nodes": [
        0
      ]
    }
  ],
  "textures": [
    {
      "sampler": 0,
      "source": 0
    }
  ]
}
